<?xml version="1.0" encoding="UTF-8"?>
<!DOCTYPE svg PUBLIC "-//W3C//DTD SVG 1.1//EN" "http://www.w3.org/Graphics/SVG/1.1/DTD/svg11.dtd">
<!-- Creator: CorelDRAW -->
<svg xmlns="http://www.w3.org/2000/svg" xml:space="preserve" width="210mm" height="297mm" version="1.1" style="shape-rendering:geometricPrecision; text-rendering:geometricPrecision; image-rendering:optimizeQuality; fill-rule:evenodd; clip-rule:evenodd"
viewBox="0 0 21000 29700"
 xmlns:xlink="http://www.w3.org/1999/xlink"
 xmlns:xodm="http://www.corel.com/coreldraw/odm/2003">
 <defs>
  <style type="text/css">
   <![CDATA[
    .str0 {stroke:white;stroke-width:282.22;stroke-linecap:round;stroke-linejoin:round;stroke-miterlimit:22.9256}
    .str1 {stroke:white;stroke-width:7.62;stroke-linecap:round;stroke-linejoin:round;stroke-miterlimit:22.9256}
    .fil0 {fill:none}
    .fil1 {fill:white;fill-rule:nonzero}
   ]]>
  </style>
 </defs>
 <g id="Capa_x0020_1">
  <metadata id="CorelCorpID_0Corel-Layer"/>
  <g id="_1486017672096">
   <path class="fil0 str0" d="M43890.82 10802.36l13493.7 0m-13493.7 0l6746.85 -10435.64m6746.85 10435.64l-6746.85 -10435.64"/>
   <path class="fil0 str0" d="M57384.52 7300.31l-13493.7 0m13493.7 0l-6746.85 10435.64m-6746.85 -10435.64l6746.85 10435.64"/>
   <polyline class="fil0 str0" points="50637.67,3713.79 44958.43,12498.11 56316.91,12498.11 50637.67,3713.79 "/>
   <polyline class="fil0 str0" points="50637.67,14388.88 56316.91,5604.56 44958.43,5604.56 50637.67,14388.88 "/>
   <polyline class="fil0 str0" points="50637.67,5604.56 47744.71,9914.21 53521.09,9928.96 50637.67,5604.56 "/>
   <polyline class="fil0 str0" points="50632.9,12499.18 53525.86,8189.53 47749.47,8174.78 50632.9,12499.18 "/>
   <polygon class="fil0 str0" points="55170.47,3713.79 46104.86,3713.79 50637.67,10802.36 "/>
   <polygon class="fil0 str0" points="46104.87,14388.88 55170.47,14388.88 50637.67,7300.31 "/>
  </g>
  <polygon class="fil1 str1" points="43893.91,21937.94 43890.82,20008.95 45030.25,20008.95 45033.35,20228.78 44138.52,20228.78 44138.52,20786.12 44859.96,20789.21 44859.96,21005.95 44138.52,21005.95 44138.52,21937.94 "/>
  <path id="_1" class="fil1 str1" d="M46324.51 21414.67l-718.34 0 46.44 -195.07 619.26 0 52.64 195.07zm-343.69 -874.19l-467.54 1397.46 -257 0 690.48 -1941.38 74.31 0 690.48 1941.38 -266.29 0 -464.44 -1397.46z"/>
  <path id="_2" class="fil1 str1" d="M46919 21937.94l0 -1928.99 585.2 0c154.81,0 280.21,22.7 376.2,68.11 95.98,45.42 166.17,109.92 210.55,193.52 44.38,83.6 66.57,182.17 66.57,295.7 0,70.18 -15.48,141.4 -46.45,213.64 -30.96,72.25 -75.34,135.21 -133.14,188.88 -57.8,53.67 -125.91,92.89 -204.35,117.66l436.57 851.48 -284.85 0 -414.91 -836 -325.11 0 0 836 -266.28 0zm266.28 -1058.93l343.69 0c123.85,0 214.68,-28.39 272.47,-85.15 57.8,-56.77 86.7,-131.6 86.7,-224.48 0,-59.87 -12.39,-114.05 -37.16,-162.56 -24.77,-48.51 -63.99,-87.21 -117.66,-116.11 -53.66,-28.9 -121.78,-43.35 -204.35,-43.35l-343.69 0 0 631.65z"/>
  <polygon id="_3" class="fil1 str1" points="48423.8,21937.94 48423.8,20008.95 48640.54,20008.95 49083.31,20934.74 49532.27,20005.85 49742.82,20005.85 49742.82,21937.94 49504.41,21937.94 49504.41,20519.83 49126.66,21272.24 49012.1,21272.24 48659.12,20526.03 48659.12,21937.94 "/>
  <polygon id="_4" class="fil1 str1" points="50095.8,21937.94 50092.71,21721.2 50476.65,21724.3 50473.55,20225.69 50117.48,20222.59 50114.38,20008.95 51105.2,20008.95 51108.29,20225.69 50727.45,20222.59 50727.45,21724.3 51123.77,21727.39 51126.87,21937.94 "/>
  <path id="_5" class="fil1 str1" d="M51544.87 20008.95l260.09 0 758.59 1377.85 -6.19 -1377.85 241.51 0 30.96 0 0 24.77c-12.38,12.38 -20.12,25.8 -23.22,40.25 -3.09,14.45 -4.64,39.22 -4.64,74.31l0 1789.66 -222.94 0 -792.65 -1461.45 0 1461.45 -241.51 0 0 -1928.99z"/>
  <path id="_6" class="fil1 str1" d="M53724.66 21972c-123.85,0 -236.86,-25.8 -339.04,-77.41 -102.18,-51.6 -184.23,-125.91 -246.16,-222.93l195.07 -151.72 24.77 -18.58 15.48 15.48c-2.06,16.52 0.52,32 7.74,46.45 7.23,14.45 21.16,35.09 41.8,61.92 39.22,43.35 83.09,75.35 131.6,95.99 48.51,20.64 106.82,30.96 174.94,30.96 49.54,0 95.98,-10.32 139.33,-30.96 43.35,-20.64 81.02,-49.54 113.02,-86.7 31.99,-37.15 57.28,-82.57 75.86,-136.23 18.57,-53.67 27.86,-112.5 27.86,-176.49 0,-66.06 -9.29,-125.92 -27.86,-179.59 -18.58,-53.67 -44.38,-99.08 -77.41,-136.24 -33.03,-37.15 -72.25,-66.05 -117.66,-86.69 -45.41,-20.64 -94.95,-30.97 -148.62,-30.97 -43.35,0 -86.18,6.71 -128.5,20.13 -42.32,13.42 -81.54,33.03 -117.66,58.83 -36.12,25.8 -69.67,57.28 -100.63,94.44l-161.01 -55.74 65.03 -997 997 0 0 222.93 -777.17 0 -30.96 517.08c33.03,-16.51 66.05,-30.45 99.08,-41.8 33.03,-11.35 67.09,-19.61 102.18,-24.77 35.09,-5.16 69.15,-7.74 102.18,-7.74 84.63,0 162.04,14.97 232.22,44.9 70.18,29.93 131.59,72.76 184.23,128.49 52.64,55.74 92.89,123.34 120.75,202.81 27.87,79.47 41.8,169.78 41.8,270.93 0,134.17 -27.35,249.76 -82.05,346.78 -54.7,97.02 -127.98,171.85 -219.83,224.48 -91.86,52.64 -197.65,78.96 -317.38,78.96z"/>
  <path id="_7" class="fil1 str1" d="M55235.66 21972c-105.27,0 -206.42,-18.58 -303.44,-55.73 -97.02,-37.16 -178.55,-92.89 -244.61,-167.2l151.72 -198.17 21.68 -24.77 18.57 15.48c2.07,16.52 6.2,32.51 12.39,48 6.19,15.48 20.64,35.6 43.35,60.37 37.15,30.97 78.95,56.25 125.4,75.86 46.44,19.61 101.66,29.42 165.65,29.42 76.38,0 139.85,-14.97 190.42,-44.9 50.58,-29.41 88.76,-71.73 114.57,-126.43 25.8,-54.19 38.7,-116.63 38.7,-186.29 0,-69.67 -11.87,-129.53 -35.61,-178.56 -23.74,-49.54 -58.83,-88.24 -105.27,-116.11 -46.45,-27.35 -102.18,-46.44 -167.2,-56.76 -65.02,-10.33 -138.82,-11.36 -221.39,-3.1l0 -207.45c97.02,2.06 176.49,-6.2 238.42,-24.77 61.92,-18.58 109.92,-43.87 143.98,-76.89 34.05,-33.03 57.79,-70.19 71.21,-112.5 13.42,-41.8 20.13,-86.7 20.13,-134.18 0,-40.76 -6.71,-77.92 -20.13,-110.95 -13.42,-32.51 -31.48,-60.89 -54.18,-84.63 -22.71,-23.22 -51.09,-41.8 -85.15,-55.22 -34.06,-13.41 -70.7,-20.12 -109.92,-20.12 -41.29,0 -82.05,5.16 -122.31,15.48 -40.25,10.32 -79.47,25.8 -117.65,46.44 -38.19,20.65 -74.83,48.51 -109.92,83.6l-151.72 -154.81c70.18,-76.38 149.65,-130.56 238.41,-162.56 88.76,-31.99 176.49,-47.99 263.19,-47.99 109.4,0 203.32,20.64 281.76,61.93 78.44,40.76 139.34,98.05 182.68,170.81 43.35,73.28 65.03,156.88 65.03,251.83 0,67.6 -11.87,131.08 -35.61,189.91 -23.74,58.31 -58.32,108.88 -103.73,151.2 -45.41,41.8 -100.11,74.31 -164.1,97.02 68.12,20.64 130.04,52.63 185.78,95.47 55.73,43.34 99.59,97.53 131.59,162.04 31.99,65.02 47.99,141.91 47.99,230.15 0,103.21 -23.22,197.14 -69.67,282.8 -46.44,85.15 -114.04,153.78 -202.8,204.87 -88.76,51.61 -198.17,77.41 -328.21,77.41z"/>
  <path id="_8" class="fil1 str1" d="M56783.81 21972c-105.27,0 -206.42,-18.58 -303.44,-55.73 -97.02,-37.16 -178.55,-92.89 -244.61,-167.2l151.72 -198.17 21.68 -24.77 18.57 15.48c2.07,16.52 6.2,32.51 12.39,48 6.19,15.48 20.64,35.6 43.35,60.37 37.15,30.97 78.95,56.25 125.4,75.86 46.44,19.61 101.66,29.42 165.65,29.42 76.38,0 139.85,-14.97 190.42,-44.9 50.58,-29.41 88.76,-71.73 114.57,-126.43 25.8,-54.19 38.7,-116.63 38.7,-186.29 0,-69.67 -11.87,-129.53 -35.61,-178.56 -23.74,-49.54 -58.83,-88.24 -105.27,-116.11 -46.45,-27.35 -102.18,-46.44 -167.2,-56.76 -65.02,-10.33 -138.82,-11.36 -221.39,-3.1l0 -207.45c97.02,2.06 176.49,-6.2 238.42,-24.77 61.92,-18.58 109.92,-43.87 143.98,-76.89 34.05,-33.03 57.79,-70.19 71.21,-112.5 13.42,-41.8 20.13,-86.7 20.13,-134.18 0,-40.76 -6.71,-77.92 -20.13,-110.95 -13.42,-32.51 -31.48,-60.89 -54.18,-84.63 -22.71,-23.22 -51.09,-41.8 -85.15,-55.22 -34.06,-13.41 -70.7,-20.12 -109.92,-20.12 -41.29,0 -82.05,5.16 -122.31,15.48 -40.25,10.32 -79.47,25.8 -117.65,46.44 -38.19,20.65 -74.83,48.51 -109.92,83.6l-151.72 -154.81c70.18,-76.38 149.65,-130.56 238.41,-162.56 88.76,-31.99 176.49,-47.99 263.19,-47.99 109.4,0 203.32,20.64 281.76,61.93 78.44,40.76 139.34,98.05 182.68,170.81 43.35,73.28 65.03,156.88 65.03,251.83 0,67.6 -11.87,131.08 -35.61,189.91 -23.74,58.31 -58.32,108.88 -103.73,151.2 -45.41,41.8 -100.11,74.31 -164.1,97.02 68.12,20.64 130.04,52.63 185.78,95.47 55.73,43.34 99.59,97.53 131.59,162.04 31.99,65.02 47.99,141.91 47.99,230.15 0,103.21 -23.22,197.14 -69.67,282.8 -46.44,85.15 -114.04,153.78 -202.8,204.87 -88.76,51.61 -198.17,77.41 -328.21,77.41z"/>
 </g>
</svg>
